<svg xmlns="http://www.w3.org/2000/svg" xmlns:xlink="http://www.w3.org/1999/xlink" version="1.1" width="256" height="256" viewBox="0 0 256 256" xml:space="preserve">

<defs>
</defs>
<g style="stroke: none; stroke-width: 0; stroke-dasharray: none; stroke-linecap: butt; stroke-linejoin: miter; stroke-miterlimit: 10; fill: none; fill-rule: nonzero; opacity: 1;" transform="translate(1.4065934065934016 1.4065934065934016) scale(2.81 2.81)" >
	<circle cx="45" cy="45" r="45" style="stroke: none; stroke-width: 1; stroke-dasharray: none; stroke-linecap: butt; stroke-linejoin: miter; stroke-miterlimit: 10; fill: rgb(32,196,203); fill-rule: nonzero; opacity: 1;" transform="  matrix(1 0 0 1 0 0) "/>
	<circle cx="36.958" cy="40.318" r="19.458" style="stroke: none; stroke-width: 1; stroke-dasharray: none; stroke-linecap: butt; stroke-linejoin: miter; stroke-miterlimit: 10; fill: rgb(32,196,203); fill-rule: nonzero; opacity: 1;" transform="  matrix(1 0 0 1 0 0) "/>
	<path d="M 36.958 62.773 c -5.999 0 -11.639 -2.337 -15.88 -6.579 c -4.242 -4.241 -6.578 -9.881 -6.578 -15.88 s 2.336 -11.639 6.578 -15.88 c 8.755 -8.755 23.003 -8.757 31.76 0 c 8.757 8.756 8.757 23.004 0 31.76 C 48.597 60.437 42.957 62.773 36.958 62.773 z M 36.958 23.864 c -4.214 0 -8.429 1.604 -11.638 4.813 c -3.108 3.109 -4.82 7.242 -4.82 11.638 s 1.712 8.529 4.82 11.638 c 3.109 3.108 7.242 4.821 11.638 4.821 s 8.529 -1.713 11.638 -4.821 c 6.417 -6.417 6.417 -16.858 0 -23.275 C 45.387 25.469 41.172 23.864 36.958 23.864 z" style="stroke: none; stroke-width: 1; stroke-dasharray: none; stroke-linecap: butt; stroke-linejoin: miter; stroke-miterlimit: 10; fill: rgb(27,167,173); fill-rule: nonzero; opacity: 1;" transform=" matrix(1 0 0 1 0 0) " stroke-linecap="round" />
	<path d="M 69.144 75.5 c -0.768 0 -1.535 -0.293 -2.121 -0.879 L 48.62 56.219 c -1.172 -1.171 -1.172 -3.071 0 -4.242 c 1.172 -1.172 3.07 -1.172 4.242 0 l 18.402 18.402 c 1.172 1.171 1.172 3.071 0 4.242 C 70.679 75.207 69.911 75.5 69.144 75.5 z" style="stroke: none; stroke-width: 1; stroke-dasharray: none; stroke-linecap: butt; stroke-linejoin: miter; stroke-miterlimit: 10; fill: rgb(27,167,173); fill-rule: nonzero; opacity: 1;" transform=" matrix(1 0 0 1 0 0) " stroke-linecap="round" />
	<circle cx="40.318" cy="36.958" r="19.458" style="stroke: none; stroke-width: 1; stroke-dasharray: none; stroke-linecap: butt; stroke-linejoin: miter; stroke-miterlimit: 10; fill: rgb(32,196,203); fill-rule: nonzero; opacity: 1;" transform="  matrix(1 0 0 1 0 0) "/>
	<path d="M 40.314 59.405 c -5.751 0.001 -11.501 -2.188 -15.88 -6.567 c -4.242 -4.241 -6.578 -9.881 -6.578 -15.88 c 0 -5.999 2.336 -11.639 6.578 -15.88 c 4.241 -4.242 9.881 -6.578 15.88 -6.578 s 11.639 2.336 15.88 6.578 v 0 c 4.242 4.242 6.579 9.881 6.579 15.88 s -2.337 11.639 -6.579 15.88 C 51.816 57.216 46.064 59.405 40.314 59.405 z M 40.314 20.5 c -4.396 0 -8.529 1.712 -11.637 4.82 c -3.109 3.108 -4.821 7.242 -4.821 11.638 s 1.712 8.529 4.82 11.638 c 6.417 6.416 16.857 6.416 23.275 0 c 3.108 -3.109 4.821 -7.242 4.821 -11.638 s -1.713 -8.529 -4.821 -11.637 v 0 C 48.844 22.212 44.71 20.5 40.314 20.5 z" style="stroke: none; stroke-width: 1; stroke-dasharray: none; stroke-linecap: butt; stroke-linejoin: miter; stroke-miterlimit: 10; fill: rgb(255,255,255); fill-rule: nonzero; opacity: 1;" transform=" matrix(1 0 0 1 0 0) " stroke-linecap="round" />
	<path d="M 72.5 72.144 c -0.768 0 -1.535 -0.293 -2.121 -0.879 L 51.977 52.862 c -1.172 -1.171 -1.172 -3.071 0 -4.242 c 1.172 -1.172 3.07 -1.172 4.242 0 l 18.402 18.402 c 1.172 1.171 1.172 3.071 0 4.242 C 74.035 71.851 73.268 72.144 72.5 72.144 z" style="stroke: none; stroke-width: 1; stroke-dasharray: none; stroke-linecap: butt; stroke-linejoin: miter; stroke-miterlimit: 10; fill: rgb(255,255,255); fill-rule: nonzero; opacity: 1;" transform=" matrix(1 0 0 1 0 0) " stroke-linecap="round" />
</g>
</svg>